<svg width="34" height="26" viewBox="0 0 34 26" fill="none" xmlns="http://www.w3.org/2000/svg">
<g filter="url(#filter0_d_2_656)">
<path d="M12.8913 0.000650814C12.5059 0.0122387 12.1401 0.174773 11.8714 0.45382L4.58435 7.80686C4.40318 7.94617 4.25623 8.12571 4.1549 8.33156C4.05357 8.53741 4.00056 8.76404 4 8.99389C3.99944 9.22373 4.05134 9.45062 4.15167 9.65697C4.252 9.86332 4.39807 10.0436 4.57856 10.1838C4.58145 10.1858 4.58434 10.1877 4.58725 10.1896L11.8714 17.5398C12.0081 17.6834 12.1718 17.7981 12.353 17.8771C12.5342 17.9562 12.7291 17.9979 12.9265 17.9999C13.1239 18.0019 13.3196 17.9642 13.5024 17.8889C13.6851 17.8137 13.8511 17.7023 13.9907 17.5615C14.1302 17.4207 14.2405 17.2532 14.3152 17.0688C14.3898 16.8844 14.4271 16.6869 14.4251 16.4877C14.4231 16.2885 14.3818 16.0918 14.3035 15.909C14.2252 15.7262 14.1115 15.561 13.9691 15.423L9.08405 10.4937L28.4954 10.3107C28.692 10.3135 28.8871 10.2769 29.0696 10.2029C29.252 10.1289 29.418 10.0191 29.558 9.87983C29.698 9.74055 29.8092 9.57458 29.885 9.39157C29.9609 9.20856 30 9.01216 30 8.81378C30 8.6154 29.9609 8.419 29.885 8.23599C29.8092 8.05298 29.698 7.88701 29.558 7.74773C29.418 7.60845 29.252 7.49864 29.0696 7.42467C28.8871 7.3507 28.692 7.31406 28.4954 7.31686L9.08405 7.49987L13.9691 2.57056C14.1835 2.3603 14.3299 2.08959 14.3892 1.79392C14.4485 1.49825 14.4178 1.19141 14.3013 0.913599C14.1848 0.635792 13.9878 0.399983 13.7362 0.237074C13.4846 0.074166 13.1901 -0.00824149 12.8913 0.000650814Z" fill="white"/>
</g>
<defs>
<filter id="filter0_d_2_656" x="0" y="0" width="34" height="26" filterUnits="userSpaceOnUse" color-interpolation-filters="sRGB">
<feFlood flood-opacity="0" result="BackgroundImageFix"/>
<feColorMatrix in="SourceAlpha" type="matrix" values="0 0 0 0 0 0 0 0 0 0 0 0 0 0 0 0 0 0 127 0" result="hardAlpha"/>
<feOffset dy="4"/>
<feGaussianBlur stdDeviation="2"/>
<feComposite in2="hardAlpha" operator="out"/>
<feColorMatrix type="matrix" values="0 0 0 0 0 0 0 0 0 0 0 0 0 0 0 0 0 0 0.25 0"/>
<feBlend mode="normal" in2="BackgroundImageFix" result="effect1_dropShadow_2_656"/>
<feBlend mode="normal" in="SourceGraphic" in2="effect1_dropShadow_2_656" result="shape"/>
</filter>
</defs>
</svg>
