<svg width="125" height="25" viewBox="0 0 125 25" fill="none" xmlns="http://www.w3.org/2000/svg">
<path d="M11.5727 2.79681C11.9095 1.96263 13.0905 1.96263 13.4273 2.79681L15.421 7.73522C15.5664 8.09534 15.9072 8.33871 16.295 8.35943L21.7247 8.6495C22.6474 8.6988 23.0153 9.86612 22.2876 10.4356L18.1367 13.6838C17.8189 13.9326 17.6817 14.3479 17.7889 14.737L19.1702 19.7506C19.4117 20.6271 18.4529 21.345 17.6798 20.8664L13.0263 17.9858C12.7038 17.7862 12.2962 17.7862 11.9737 17.9858L7.32021 20.8664C6.54713 21.345 5.58829 20.6271 5.82979 19.7506L7.21107 14.737C7.31826 14.3479 7.18108 13.9326 6.86327 13.6838L2.71239 10.4356C1.98465 9.86612 2.35256 8.6988 3.27532 8.6495L8.70502 8.35943C9.09283 8.33871 9.43357 8.09534 9.57895 7.73522L11.5727 2.79681Z" fill="#D22424"/>
<path d="M36.5727 2.79681C36.9095 1.96263 38.0905 1.96263 38.4273 2.79681L40.421 7.73522C40.5664 8.09534 40.9072 8.33871 41.295 8.35943L46.7247 8.6495C47.6474 8.6988 48.0153 9.86612 47.2876 10.4356L43.1367 13.6838C42.8189 13.9326 42.6817 14.3479 42.7889 14.737L44.1702 19.7506C44.4117 20.6271 43.4529 21.345 42.6798 20.8664L38.0263 17.9858C37.7038 17.7862 37.2962 17.7862 36.9737 17.9858L32.3202 20.8664C31.5471 21.345 30.5883 20.6271 30.8298 19.7506L32.2111 14.737C32.3183 14.3479 32.1811 13.9326 31.8633 13.6838L27.7124 10.4356C26.9847 9.86612 27.3526 8.6988 28.2753 8.6495L33.705 8.35943C34.0928 8.33871 34.4336 8.09534 34.579 7.73522L36.5727 2.79681Z" fill="#D22424"/>
<path d="M61.5727 2.79681C61.9095 1.96263 63.0905 1.96263 63.4273 2.79681L65.421 7.73522C65.5664 8.09534 65.9072 8.33871 66.295 8.35943L71.7247 8.6495C72.6474 8.6988 73.0153 9.86612 72.2876 10.4356L68.1367 13.6838C67.8189 13.9326 67.6817 14.3479 67.7889 14.737L69.1702 19.7506C69.4117 20.6271 68.4529 21.345 67.6798 20.8664L63.0263 17.9858C62.7038 17.7862 62.2962 17.7862 61.9737 17.9858L57.3202 20.8664C56.5471 21.345 55.5883 20.6271 55.8298 19.7506L57.2111 14.737C57.3183 14.3479 57.1811 13.9326 56.8633 13.6838L52.7124 10.4356C51.9847 9.86612 52.3526 8.6988 53.2753 8.6495L58.705 8.35943C59.0928 8.33871 59.4336 8.09534 59.579 7.73522L61.5727 2.79681Z" fill="#D22424"/>
<path d="M86.5727 2.79681C86.9095 1.96263 88.0905 1.96263 88.4273 2.79681L90.421 7.73522C90.5664 8.09534 90.9072 8.33871 91.295 8.35943L96.7247 8.6495C97.6474 8.6988 98.0153 9.86612 97.2876 10.4356L93.1367 13.6838C92.8189 13.9326 92.6817 14.3479 92.7889 14.737L94.1702 19.7506C94.4117 20.6271 93.4529 21.345 92.6798 20.8664L88.0263 17.9858C87.7038 17.7862 87.2962 17.7862 86.9737 17.9858L82.3202 20.8664C81.5471 21.345 80.5883 20.6271 80.8298 19.7506L82.2111 14.737C82.3183 14.3479 82.1811 13.9326 81.8633 13.6838L77.7124 10.4356C76.9847 9.86612 77.3526 8.6988 78.2753 8.6495L83.705 8.35943C84.0928 8.33871 84.4336 8.09534 84.579 7.73522L86.5727 2.79681Z" fill="#D22424"/>
<path d="M111.573 2.79681C111.909 1.96263 113.091 1.96263 113.427 2.79681L115.421 7.73522C115.566 8.09534 115.907 8.33871 116.295 8.35943L121.725 8.6495C122.647 8.6988 123.015 9.86612 122.288 10.4356L118.137 13.6838C117.819 13.9326 117.682 14.3479 117.789 14.737L119.17 19.7506C119.412 20.6271 118.453 21.345 117.68 20.8664L113.026 17.9858C112.704 17.7862 112.296 17.7862 111.974 17.9858L107.32 20.8664C106.547 21.345 105.588 20.6271 105.83 19.7506L107.211 14.737C107.318 14.3479 107.181 13.9326 106.863 13.6838L102.712 10.4356C101.985 9.86612 102.353 8.6988 103.275 8.6495L108.705 8.35943C109.093 8.33871 109.434 8.09534 109.579 7.73522L111.573 2.79681Z" fill="#171717"/>
<path fill-rule="evenodd" clip-rule="evenodd" d="M112.086 2C111.707 2 111.328 2.20854 111.159 2.62563L109.165 7.56405C109.02 7.92416 108.679 8.16754 108.291 8.18826L102.862 8.47833C101.939 8.52762 101.571 9.69494 102.299 10.2644L106.45 13.5127C106.768 13.7614 106.905 14.1767 106.798 14.5658L105.416 19.5794C105.175 20.4559 106.134 21.1738 106.907 20.6953L111.56 17.8146C111.721 17.7148 111.904 17.6649 112.086 17.6649V2Z" fill="#D22424"/>
</svg>
