<svg width="19" height="21" viewBox="0 0 19 21" fill="none" xmlns="http://www.w3.org/2000/svg">
<path d="M10.085 0.77002C8.35393 0.77002 6.9452 2.10917 6.9452 3.75476C6.9452 4.79347 7.50837 5.70724 8.35771 6.24205C7.50837 6.77685 6.9452 7.69062 6.9452 8.72933V12.709C6.9452 13.8064 7.88401 14.6988 9.03842 14.6988H13.6787L16.5139 19.1915L18.3087 18.1655L15.1688 13.1909C14.9805 12.8914 14.6388 12.709 14.2715 12.709H13.2249V8.72933C13.2249 7.69062 12.6617 6.77685 11.8123 6.24205C12.6617 5.70724 13.2249 4.79347 13.2249 3.75476C13.2249 2.10917 11.8161 0.77002 10.085 0.77002ZM10.085 2.75985C10.6617 2.75985 11.1316 3.20656 11.1316 3.75476C11.1316 4.30296 10.6617 4.74967 10.085 4.74967C9.50834 4.74967 9.03842 4.30296 9.03842 3.75476C9.03842 3.20656 9.50834 2.75985 10.085 2.75985ZM10.085 7.73442C10.6617 7.73442 11.1316 8.18113 11.1316 8.72933V12.709H9.03842V8.72933C9.03842 8.18113 9.50834 7.73442 10.085 7.73442ZM4.85198 9.07716C2.41652 9.89896 0.665543 12.1051 0.665543 14.6988C0.665543 17.991 3.48197 20.6683 6.9452 20.6683C9.67371 20.6683 11.9944 19.0038 12.8589 16.6886H10.549C9.8227 17.8726 8.4879 18.6785 6.9452 18.6785C4.63638 18.6785 2.75876 16.8936 2.75876 14.6988C2.75876 13.2323 3.60651 11.9634 4.85198 11.273V9.07716Z" fill="#585858"/>
</svg>
