<svg width="21" height="18" viewBox="0 0 21 18" fill="none" xmlns="http://www.w3.org/2000/svg">
<path d="M0.871531 16.4774L0.87159 16.4774V16.4699V15.7106V8.87725C0.87159 8.34977 1.36861 7.83308 2.09963 7.83308C2.83066 7.83308 3.32768 8.34977 3.32768 8.87725V11.9143V12.3886H3.80203H17.4212H17.8955V11.9143V8.87725C17.8955 8.34977 18.3925 7.83308 19.1236 7.83308C19.8546 7.83308 20.3516 8.34977 20.3516 8.87725V13.4328V16.4699H20.3515L20.3517 16.4774C20.3521 16.507 20.3461 16.5379 20.3322 16.5689C20.3181 16.6001 20.2955 16.6323 20.2627 16.662C20.2298 16.6918 20.1876 16.718 20.1375 16.7367C20.0873 16.7554 20.0318 16.7656 19.9748 16.7656C19.9177 16.7656 19.8622 16.7554 19.812 16.7367C19.7619 16.718 19.7197 16.6918 19.6868 16.662L19.3686 17.0137L19.6868 16.662C19.654 16.6323 19.6314 16.6001 19.6174 16.5689C19.6034 16.5379 19.5974 16.507 19.5979 16.4774L19.5979 16.4774V16.4699V15.7106V15.2362H19.1236H2.09963H1.62528V15.7106V16.4699H1.62522L1.62534 16.4774C1.62581 16.507 1.61979 16.5379 1.60584 16.5689C1.59179 16.6001 1.56922 16.6323 1.53639 16.662C1.50345 16.6918 1.4613 16.718 1.41115 16.7367C1.36097 16.7554 1.30552 16.7656 1.24844 16.7656C1.19136 16.7656 1.13591 16.7554 1.08573 16.7367C1.03557 16.718 0.993423 16.6918 0.960485 16.662C0.927655 16.6323 0.905082 16.6001 0.891034 16.5689C0.877084 16.5379 0.871061 16.507 0.871531 16.4774ZM2.57398 3.56243C2.57398 2.19673 3.83367 0.99974 5.50442 0.99974H15.7188C17.3895 0.99974 18.6492 2.19673 18.6492 3.56243V5.3922C16.7701 5.60191 15.2444 7.0409 15.2444 8.87725V9.92142H5.97877V8.87725C5.97877 7.0409 4.45313 5.60191 2.57398 5.3922V3.56243Z" fill="#181818" stroke="#D22424" stroke-width="0.948699"/>
</svg>
