<svg width="21" height="18" viewBox="0 0 21 18" fill="none" xmlns="http://www.w3.org/2000/svg">
<path d="M5.5379 0.227173C3.6576 0.227173 2.13311 1.61476 2.13311 3.32619V5.65046C4.0134 5.65046 5.5379 7.03805 5.5379 8.74948V10.299H15.7523V8.74948C15.7523 7.03805 17.2767 5.65046 19.157 5.65046V3.32619C19.157 1.61476 17.6325 0.227173 15.7523 0.227173H5.5379ZM2.13311 7.19997C1.19254 7.19997 0.430719 7.89338 0.430719 8.74948V15.7223V16.497C0.429123 16.5997 0.449962 16.7016 0.492023 16.7969C0.534083 16.8922 0.596528 16.9789 0.675727 17.052C0.754926 17.1251 0.8493 17.1832 0.953365 17.2228C1.05743 17.2624 1.16911 17.2828 1.28192 17.2828C1.39472 17.2828 1.5064 17.2624 1.61046 17.2228C1.71453 17.1832 1.8089 17.1251 1.8881 17.052C1.9673 16.9789 2.02975 16.8922 2.07181 16.7969C2.11387 16.7016 2.13471 16.5997 2.13311 16.497V15.7223H19.157V16.497C19.1554 16.5997 19.1763 16.7016 19.2183 16.7969C19.2604 16.8922 19.3228 16.9789 19.402 17.052C19.4812 17.1251 19.5756 17.1832 19.6797 17.2228C19.7837 17.2624 19.8954 17.2828 20.0082 17.2828C20.121 17.2828 20.2327 17.2624 20.3368 17.2228C20.4408 17.1832 20.5352 17.1251 20.6144 17.052C20.6936 16.9789 20.7561 16.8922 20.7981 16.7969C20.8402 16.7016 20.861 16.5997 20.8594 16.497V13.398V8.74948C20.8594 7.89338 20.0976 7.19997 19.157 7.19997C18.2165 7.19997 17.4546 7.89338 17.4546 8.74948V11.8485H3.8355V8.74948C3.8355 7.89338 3.07368 7.19997 2.13311 7.19997Z" fill="#D22424"/>
</svg>
