<svg width="22" height="18" viewBox="0 0 22 18" fill="none" xmlns="http://www.w3.org/2000/svg">
<path d="M6.05593 0.665039C4.17564 0.665039 2.65115 2.05263 2.65115 3.76406V6.08833C4.53144 6.08833 6.05593 7.47591 6.05593 9.18735V10.7369H16.2703V9.18735C16.2703 7.47591 17.7948 6.08833 19.6751 6.08833V3.76406C19.6751 2.05263 18.1506 0.665039 16.2703 0.665039H6.05593ZM2.65115 7.63784C1.71058 7.63784 0.948755 8.33124 0.948755 9.18735V16.1601V16.9349C0.947159 17.0376 0.967998 17.1395 1.01006 17.2348C1.05212 17.33 1.11456 17.4168 1.19376 17.4899C1.27296 17.563 1.36734 17.621 1.4714 17.6607C1.57547 17.7003 1.68715 17.7207 1.79995 17.7207C1.91276 17.7207 2.02444 17.7003 2.1285 17.6607C2.23257 17.621 2.32694 17.563 2.40614 17.4899C2.48534 17.4168 2.54778 17.33 2.58984 17.2348C2.6319 17.1395 2.65274 17.0376 2.65115 16.9349V16.1601H19.6751V16.9349C19.6735 17.0376 19.6943 17.1395 19.7364 17.2348C19.7784 17.33 19.8409 17.4168 19.9201 17.4899C19.9993 17.563 20.0937 17.621 20.1977 17.6607C20.3018 17.7003 20.4135 17.7207 20.5263 17.7207C20.6391 17.7207 20.7508 17.7003 20.8548 17.6607C20.9589 17.621 21.0533 17.563 21.1325 17.4899C21.2117 17.4168 21.2741 17.33 21.3162 17.2348C21.3582 17.1395 21.3791 17.0376 21.3775 16.9349V13.8359V9.18735C21.3775 8.33124 20.6156 7.63784 19.6751 7.63784C18.7345 7.63784 17.9727 8.33124 17.9727 9.18735V12.2864H4.35354V9.18735C4.35354 8.33124 3.59172 7.63784 2.65115 7.63784Z" fill="#585858"/>
</svg>
