<svg width="29" height="32" viewBox="0 0 29 32" fill="none" xmlns="http://www.w3.org/2000/svg">
<path d="M2.57369 31.6436C1.99169 31.4652 1.23195 30.6628 0.946602 29.9252C0.717446 29.3328 0.704775 28.7111 0.671707 16.4353C0.633726 2.33636 0.621317 2.59951 1.37524 1.51623C1.56586 1.24235 1.97885 0.880158 2.293 0.711368C2.78288 0.448156 2.98162 0.413929 3.68923 0.470922C4.14656 0.507765 4.80427 0.668478 5.16492 0.831536C6.63558 1.49644 27.103 13.3365 27.7003 13.8679C29.2739 15.2678 29.2748 16.975 27.7027 18.3293C27.0844 18.8618 7.44449 30.2229 5.50782 31.1683C4.38566 31.716 3.35509 31.883 2.5738 31.6436H2.57369Z" fill="white"/>
</svg>
