<svg width="118" height="62" viewBox="0 0 118 62" fill="none" xmlns="http://www.w3.org/2000/svg">
<path d="M26.7562 22.3969C26.8434 22.5277 26.9306 22.7238 27.0177 22.9854C27.1485 23.247 27.2793 23.5521 27.4101 23.9009C27.5409 24.206 27.6281 24.5112 27.6717 24.8163C27.7588 25.0779 27.7806 25.2959 27.737 25.4703C27.6499 25.7318 27.5409 25.9062 27.4101 25.9934C27.2793 26.037 27.1049 26.0588 26.887 26.0588C25.8407 26.0588 24.6637 26.1896 23.3558 26.4511C22.0044 26.7127 20.6748 27.0832 19.367 27.5628C18.0591 28.0423 16.8603 28.6526 15.7704 29.3937C14.6806 30.1348 13.8741 31.0067 13.351 32.0094C13.2638 32.2274 13.1766 32.4889 13.0894 32.7941C13.0022 33.0557 13.024 33.4916 13.1548 34.1019C13.3292 34.6686 13.6779 35.4315 14.201 36.3906C14.7242 37.3061 15.5307 38.5267 16.6205 40.0525C17.4924 39.4422 18.5823 38.7229 19.8901 37.8946C21.1979 37.0227 22.4621 36.1726 23.6828 35.3443C24.947 34.5161 26.0587 33.7968 27.0177 33.1864C27.9768 32.5325 28.5653 32.1184 28.7833 31.944C29.0885 31.726 29.4372 31.617 29.8296 31.617H29.895C30.3745 31.6606 30.6797 31.9222 30.8104 32.4017C30.9848 32.8377 30.8758 33.2082 30.4835 33.5134C28.4346 35.0828 26.3856 36.5214 24.3367 37.8292C22.3314 39.0934 20.2824 40.5321 18.1899 42.145C18.8002 42.9297 19.4106 43.7362 20.0209 44.5645C20.6312 45.3928 21.1761 46.2429 21.6557 47.1148C21.8736 47.5071 22.0698 48.0085 22.2442 48.6188C22.4621 49.2291 22.5493 49.9266 22.5057 50.7113C22.5057 51.4524 22.3314 52.2589 21.9826 53.1308C21.6339 54.0027 21.0235 54.8746 20.1517 55.7464C19.5413 56.3568 18.6912 57.0107 17.6014 57.7082C16.5551 58.4493 15.4217 59.125 14.201 59.7353C12.9804 60.3456 11.7598 60.847 10.5391 61.2393C9.31849 61.6317 8.25044 61.8278 7.33496 61.8278C6.59386 61.8278 5.89635 61.6752 5.24243 61.3701C4.63212 61.1085 4.0218 60.6944 3.41148 60.1277L2.36522 59.1468C2.01646 58.7544 1.68951 58.3185 1.38435 57.839C1.07919 57.403 0.883014 56.9235 0.795826 56.4003C0.665043 55.9208 0.708638 55.4195 0.926609 54.8963C1.23177 54.0681 1.7331 53.2616 2.43061 52.4769C3.30249 51.4306 4.23977 50.4497 5.24243 49.5343C6.2887 48.5752 7.31316 47.6597 8.31583 46.7878C9.2313 45.9595 10.1468 45.1966 11.0623 44.4991C12.0213 43.758 13.0022 43.0169 14.0049 42.2758C13.6997 41.8835 13.3292 41.3821 12.8932 40.7718C12.4573 40.1179 11.9995 39.464 11.52 38.8101C11.0841 38.1562 10.6481 37.5023 10.2122 36.8483C9.81983 36.1944 9.49287 35.6277 9.2313 35.1482C8.35942 33.666 7.92348 32.2928 7.92348 31.0285C7.96707 29.7207 8.25044 28.4783 8.77357 27.3012C9.2967 26.1678 10.0378 25.1215 10.9969 24.1624C11.9559 23.2034 13.024 22.3751 14.201 21.6776C15.4217 20.9801 16.6859 20.4351 17.9937 20.0428C19.3016 19.6068 20.544 19.3889 21.721 19.3889C22.9853 19.3889 23.9661 19.6068 24.6637 20.0428C25.3612 20.4787 26.0587 21.2634 26.7562 22.3969ZM2.95374 55.8118C4 55.681 5.30783 55.3759 6.87722 54.8963C8.44661 54.4604 9.97241 53.8719 11.4546 53.1308C12.9368 52.3897 14.201 51.5178 15.2473 50.5151C16.3372 49.4689 16.9475 48.3354 17.0783 47.1148C17.0783 46.8968 17.0129 46.657 16.8821 46.3955C16.7949 46.1339 16.6641 45.8723 16.4897 45.6108C16.359 45.3056 16.2064 45.0441 16.032 44.8261C15.8576 44.5645 15.7268 44.3901 15.6397 44.303C12.8932 46.7878 10.4301 48.9893 8.25044 50.9075C6.11432 52.782 4.34875 54.4168 2.95374 55.8118ZM55.982 15.9231C56.1564 16.1411 56.3308 16.4245 56.5051 16.7732C56.7231 17.0784 56.7885 17.3835 56.7013 17.6887C56.6577 18.0374 56.4179 18.2118 55.982 18.2118H55.7204C51.6226 17.8195 47.4811 17.6233 43.2961 17.6233C41.9011 19.9774 40.4843 22.593 39.0457 25.4703C37.607 28.3039 36.2992 31.2683 35.1222 34.3635C33.9451 37.4151 32.9643 40.4885 32.1796 43.5837C31.3949 46.6788 30.9589 49.6432 30.8717 52.4769C30.7846 53.4359 30.7846 54.3732 30.8717 55.2887C30.9153 55.5067 30.9371 55.7246 30.9371 55.9426C30.9807 56.1606 31.0243 56.3786 31.0679 56.5965V56.7927C31.1551 57.0543 31.2205 57.3158 31.2641 57.5774C31.3513 57.839 31.4385 58.1005 31.5257 58.3621C31.8744 58.7108 32.1796 59.0596 32.4411 59.4083C32.7027 59.8007 32.8989 60.193 33.0297 60.5854C33.1168 60.8034 33.1386 60.9995 33.095 61.1739C33.0515 61.3483 32.9207 61.4791 32.7027 61.5663H32.5065C32.245 61.5663 31.9616 61.4791 31.6564 61.3047C31.3513 61.1303 31.1115 60.9995 30.9371 60.9123C29.5421 60.0405 28.3651 58.9506 27.406 57.6428C26.4469 56.335 25.793 54.8746 25.4443 53.2616C25.1827 51.7794 25.0737 50.2972 25.1173 48.815C25.1173 47.3328 25.2263 45.8288 25.4443 44.303C26.1418 39.8128 27.3406 35.3008 29.0408 30.767C30.741 26.2332 32.6591 21.9609 34.7952 17.9503C33.531 18.0374 32.2886 18.1464 31.0679 18.2772C29.8473 18.3644 28.6048 18.4952 27.3406 18.6696C26.9047 18.6696 26.4033 18.5388 25.8366 18.2772C25.2699 17.9721 24.725 17.6015 24.2018 17.1656C23.6787 16.7296 23.221 16.2501 22.8286 15.727C22.4363 15.2038 22.1965 14.7243 22.1093 14.2883C22.0221 14.0704 22.0003 13.8524 22.0439 13.6344C22.0875 13.4165 22.2401 13.2857 22.5017 13.2421C25.1173 12.8933 27.6894 12.6536 30.2178 12.5228C32.7899 12.3484 35.3837 12.2394 37.9994 12.1958L39.765 9.51478C40.5932 8.29414 41.4869 7.02991 42.446 5.72208C43.4487 4.41426 44.4077 3.28081 45.3232 2.32174C46.2823 1.31907 47.0452 0.817737 47.6119 0.817737C48.0043 0.817737 48.4402 0.970317 48.9197 1.27548C49.4429 1.53704 49.9224 1.864 50.3584 2.25635C50.8379 2.64869 51.252 3.06284 51.6008 3.49878C51.9931 3.93472 52.2765 4.30527 52.4509 4.61043C52.4509 4.65403 52.4727 4.74122 52.5163 4.872C52.6035 5.00278 52.6688 5.15536 52.7124 5.32974C52.756 5.46052 52.7778 5.5913 52.7778 5.72208C52.7778 5.85287 52.7342 5.94006 52.647 5.98365C52.1675 6.24521 51.6444 6.65936 51.0777 7.22608C50.5109 7.74922 49.966 8.31594 49.4429 8.92626C48.9197 9.53658 48.4184 10.1469 47.9389 10.7572C47.4593 11.3675 47.0452 11.9125 46.6964 12.392C47.5683 12.4792 48.4402 12.5446 49.3121 12.5882C50.184 12.6318 51.0559 12.6972 51.9277 12.7843C52.2765 12.8279 52.647 12.9805 53.0394 13.2421C53.4317 13.4601 53.8023 13.7216 54.151 14.0268C54.5434 14.3319 54.8921 14.6589 55.1973 15.0077C55.5461 15.3564 55.8076 15.6616 55.982 15.9231ZM65.7049 47.7687C64.615 49.3381 63.4816 50.6459 62.3045 51.6922C61.1275 52.6948 59.9068 53.1962 58.6426 53.1962C57.9015 53.1962 57.204 53.0436 56.5501 52.7384C55.9398 52.3897 55.373 51.9537 54.8499 51.4306C54.3704 50.9075 53.9562 50.319 53.6075 49.665C53.2587 49.0111 52.9972 48.3572 52.8228 47.7033C52.6048 46.9186 52.5176 46.1993 52.5612 45.5454C52.6484 44.8479 52.6484 44.2376 52.5612 43.7144C52.2997 44.0632 51.8637 44.7607 51.2534 45.807C50.6867 46.8096 50.0546 47.8559 49.357 48.9457C48.6595 49.992 47.9402 50.9511 47.1991 51.823C46.5016 52.6948 45.8913 53.1308 45.3682 53.1308C44.7143 53.1308 43.995 52.9128 43.2103 52.4769C42.4256 51.9973 41.6845 51.4306 40.987 50.7767C40.2895 50.1228 39.6573 49.4253 39.0906 48.6842C38.5675 47.8995 38.2187 47.202 38.0443 46.5917C37.7828 45.7198 37.6738 44.8479 37.7174 43.976C37.8046 43.0605 37.9136 42.1668 38.0443 41.295C38.2187 40.3359 38.4803 39.2242 38.829 37.96C39.2214 36.6958 39.7009 35.3661 40.2677 33.9711C40.8344 32.5761 41.4883 31.2247 42.2294 29.9169C43.0141 28.5654 43.8642 27.3666 44.7797 26.3203C45.6951 25.2305 46.676 24.3804 47.7223 23.7701C48.8121 23.1162 49.9674 22.7892 51.188 22.7892C52.3215 22.7892 53.3895 23.1162 54.3922 23.7701C55.3948 24.3804 56.2885 25.0561 57.0732 25.7972C57.1604 25.6228 57.2476 25.3613 57.3348 25.0125C57.4656 24.6202 57.5746 24.2496 57.6617 23.9009C57.7925 23.5521 57.9015 23.247 57.9887 22.9854C58.0759 22.6802 58.1413 22.5277 58.1849 22.5277H58.3157C58.5336 22.5277 58.9696 22.6366 59.6235 22.8546C60.321 23.029 61.0185 23.3123 61.716 23.7047C62.4571 24.0534 63.0892 24.4894 63.6124 25.0125C64.1355 25.5357 64.3535 26.1242 64.2663 26.7781C64.2663 26.8217 64.0919 27.2576 63.7431 28.0859C63.438 28.9142 63.0456 29.9823 62.5661 31.2901C62.1301 32.5543 61.6724 33.9711 61.1929 35.5405C60.7133 37.1099 60.2992 38.6575 59.9504 40.1833C59.6453 41.6655 59.4491 43.0605 59.3619 44.3683C59.2747 45.6326 59.4055 46.6134 59.7543 47.311C60.0158 47.7033 60.2774 47.8995 60.539 47.8995C61.1057 47.8995 61.7814 47.3763 62.5661 46.3301C63.3508 45.2838 64.2009 43.9542 65.1164 42.3412C66.0318 40.7282 66.9691 38.9409 67.9282 36.9791C68.8872 35.0174 69.8027 33.121 70.6746 31.2901C70.8054 30.9849 70.9798 30.7888 71.1977 30.7016C71.4593 30.5708 71.6991 30.5054 71.917 30.5054C72.353 30.5054 72.7235 30.6362 73.0287 30.8977C73.3775 31.1157 73.5082 31.3337 73.421 31.5517C73.3775 31.6824 73.1377 32.3145 72.7017 33.448C72.3094 34.5814 71.7645 35.9547 71.067 37.5677C70.413 39.137 69.6284 40.8372 68.7129 42.6682C67.7974 44.4991 66.7947 46.1993 65.7049 47.7687ZM45.172 44.9569C46.0439 44.4337 47.1119 43.5183 48.3762 42.2104C49.6404 40.859 50.97 39.0499 52.365 36.783C53.8037 34.5161 55.0897 31.5952 56.2231 28.0205C55.0461 28.0641 53.9344 28.4129 52.8882 29.0668C51.8855 29.7207 50.9482 30.5708 50.0763 31.617C49.2045 32.6197 48.398 33.775 47.6569 35.0828C46.9594 36.347 46.349 37.633 45.8259 38.9409C45.3028 40.2487 44.845 41.5347 44.4527 42.799C44.0603 44.0196 43.777 45.0877 43.6026 46.0031C43.7334 45.8723 44.2565 45.5236 45.172 44.9569ZM65.0653 48.7496C65.8064 44.085 66.8962 39.464 68.3348 34.8866C69.817 30.3092 71.5172 25.8626 73.4353 21.5468C73.6533 21.0237 74.0239 20.7621 74.547 20.7621C74.8086 20.7621 75.0265 20.8275 75.2009 20.9583C75.942 21.5686 76.5959 22.1571 77.1627 22.7238C77.6422 23.2034 78.0781 23.6829 78.4705 24.1624C78.8628 24.642 79.0154 25.0125 78.9282 25.2741C78.7102 26.146 78.4051 27.1486 78.0127 28.2821C77.6204 29.3719 77.2934 30.2438 77.0319 30.8977C76.8139 31.4645 76.6395 31.944 76.5087 32.3363C76.4216 32.6851 76.3344 32.9903 76.2472 33.2518C76.2036 33.5134 76.1818 33.7314 76.1818 33.9057C77.7948 31.2901 79.277 28.936 80.6284 26.8435C81.2387 25.928 81.8272 25.0343 82.394 24.1624C83.0043 23.2905 83.571 22.5059 84.0941 21.8083C84.6173 21.1108 85.075 20.5223 85.4673 20.0428C85.8597 19.5632 86.1649 19.2581 86.3828 19.1273C86.7752 18.9093 87.1893 18.7132 87.6253 18.5388C88.0612 18.3208 88.5189 18.2118 88.9985 18.2118C89.7396 18.2118 90.4371 18.3862 91.091 18.735C91.7449 19.0837 92.3334 19.4979 92.8566 19.9774C93.2489 20.3261 93.4233 20.8711 93.3797 21.6122C93.3797 22.3097 93.2489 23.1162 92.9874 24.0317C92.7694 24.9471 92.486 25.9062 92.1373 26.9089C91.7885 27.9115 91.4834 28.8924 91.2218 29.8515C90.9602 30.767 90.7858 31.617 90.6987 32.4017C90.6551 33.1428 90.8076 33.7314 91.1564 34.1673C89.6742 33.9493 88.41 33.6224 87.3637 33.1864C86.4918 32.7505 85.7289 32.1838 85.075 31.4863C84.4647 30.7452 84.3339 29.8079 84.6827 28.6744C85.075 27.4974 85.4891 26.5601 85.9251 25.8626C86.361 25.1651 86.5354 24.8163 86.4482 24.8163L86.3828 24.8817C86.3392 24.8817 86.2956 24.9035 86.252 24.9471C84.857 26.2114 83.2658 28.0859 81.4785 30.5708C79.6911 33.0121 77.8166 36.3034 75.8548 40.4449L73.6969 45.3492C73.2174 46.4827 72.7596 47.6379 72.3237 48.815C71.9313 49.992 71.4954 51.2126 71.0159 52.4769C71.0159 52.4333 70.9941 52.4987 70.9505 52.673C70.9069 52.8038 70.8197 52.9564 70.6889 53.1308C70.5581 53.3488 70.4056 53.5231 70.2312 53.6539C70.1004 53.8283 69.9478 53.9155 69.7734 53.9155C69.4683 53.9155 69.1195 53.7847 68.7272 53.5231C68.3348 53.2616 67.9425 52.9564 67.5501 52.6077C67.1578 52.2153 66.809 51.8448 66.5039 51.496C66.1551 51.1037 65.8936 50.7767 65.7192 50.5151C65.5884 50.2972 65.4358 50.0356 65.2614 49.7304C65.0871 49.3817 65.0217 49.0547 65.0653 48.7496ZM113.157 22.3969C113.244 22.5277 113.331 22.7238 113.419 22.9854C113.549 23.247 113.68 23.5521 113.811 23.9009C113.942 24.206 114.029 24.5112 114.072 24.8163C114.16 25.0779 114.181 25.2959 114.138 25.4703C114.051 25.7318 113.942 25.9062 113.811 25.9934C113.68 26.037 113.506 26.0588 113.288 26.0588C112.242 26.0588 111.064 26.1896 109.757 26.4511C108.405 26.7127 107.076 27.0832 105.768 27.5628C104.46 28.0423 103.261 28.6526 102.171 29.3937C101.081 30.1348 100.275 31.0067 99.7518 32.0094C99.6646 32.2274 99.5774 32.4889 99.4902 32.7941C99.403 33.0557 99.4248 33.4916 99.5556 34.1019C99.73 34.6686 100.079 35.4315 100.602 36.3906C101.125 37.3061 101.931 38.5267 103.021 40.0525C103.893 39.4422 104.983 38.7229 106.291 37.8946C107.599 37.0227 108.863 36.1726 110.084 35.3443C111.348 34.5161 112.459 33.7968 113.419 33.1864C114.378 32.5325 114.966 32.1184 115.184 31.944C115.489 31.726 115.838 31.617 116.23 31.617H116.296C116.775 31.6606 117.08 31.9222 117.211 32.4017C117.386 32.8377 117.277 33.2082 116.884 33.5134C114.835 35.0828 112.786 36.5214 110.738 37.8292C108.732 39.0934 106.683 40.5321 104.591 42.145C105.201 42.9297 105.811 43.7362 106.422 44.5645C107.032 45.3928 107.577 46.2429 108.056 47.1148C108.274 47.5071 108.471 48.0085 108.645 48.6188C108.863 49.2291 108.95 49.9266 108.907 50.7113C108.907 51.4524 108.732 52.2589 108.383 53.1308C108.035 54.0027 107.424 54.8746 106.552 55.7464C105.942 56.3568 105.092 57.0107 104.002 57.7082C102.956 58.4493 101.822 59.125 100.602 59.7353C99.3812 60.3456 98.1606 60.847 96.9399 61.2393C95.7193 61.6317 94.6513 61.8278 93.7358 61.8278C92.9947 61.8278 92.2972 61.6752 91.6433 61.3701C91.0329 61.1085 90.4226 60.6944 89.8123 60.1277L88.766 59.1468C88.4173 58.7544 88.0903 58.3185 87.7852 57.839C87.48 57.403 87.2838 56.9235 87.1966 56.4003C87.0659 55.9208 87.1095 55.4195 87.3274 54.8963C87.6326 54.0681 88.1339 53.2616 88.8314 52.4769C89.7033 51.4306 90.6406 50.4497 91.6433 49.5343C92.6895 48.5752 93.714 47.6597 94.7166 46.7878C95.6321 45.9595 96.5476 45.1966 97.4631 44.4991C98.4222 43.758 99.403 43.0169 100.406 42.2758C100.101 41.8835 99.73 41.3821 99.294 40.7718C98.8581 40.1179 98.4004 39.464 97.9208 38.8101C97.4849 38.1562 97.0489 37.5023 96.613 36.8483C96.2206 36.1944 95.8937 35.6277 95.6321 35.1482C94.7602 33.666 94.3243 32.2928 94.3243 31.0285C94.3679 29.7207 94.6513 28.4783 95.1744 27.3012C95.6975 26.1678 96.4386 25.1215 97.3977 24.1624C98.3568 23.2034 99.4248 22.3751 100.602 21.6776C101.822 20.9801 103.087 20.4351 104.395 20.0428C105.702 19.6068 106.945 19.3889 108.122 19.3889C109.386 19.3889 110.367 19.6068 111.064 20.0428C111.762 20.4787 112.459 21.2634 113.157 22.3969ZM89.3546 55.8118C90.4008 55.681 91.7086 55.3759 93.278 54.8963C94.8474 54.4604 96.3732 53.8719 97.8554 53.1308C99.3376 52.3897 100.602 51.5178 101.648 50.5151C102.738 49.4689 103.348 48.3354 103.479 47.1148C103.479 46.8968 103.414 46.657 103.283 46.3955C103.196 46.1339 103.065 45.8723 102.891 45.6108C102.76 45.3056 102.607 45.0441 102.433 44.8261C102.258 44.5645 102.128 44.3901 102.04 44.303C99.294 46.7878 96.831 48.9893 94.6513 50.9075C92.5151 52.782 90.7496 54.4168 89.3546 55.8118Z" fill="url(#paint0_linear_2_383)"/>
<defs>
<linearGradient id="paint0_linear_2_383" x1="102.087" y1="14.7754" x2="-0.707852" y2="62.8325" gradientUnits="userSpaceOnUse">
<stop stop-color="#D22424"/>
<stop offset="1" stop-color="#FA4141"/>
</linearGradient>
</defs>
</svg>
