<svg width="22" height="16" viewBox="0 0 22 16" fill="none" xmlns="http://www.w3.org/2000/svg">
<path d="M0.626465 9.4375H13.436C13.5183 9.43756 13.5998 9.4214 13.6758 9.38994C13.7519 9.35848 13.821 9.31234 13.8792 9.25416C13.9373 9.19597 13.9835 9.12688 14.0149 9.05085C14.0464 8.97481 14.0626 8.89332 14.0625 8.81104V6.93896C14.0626 6.85668 14.0464 6.77519 14.0149 6.69915C13.9835 6.62312 13.9373 6.55403 13.8792 6.49584C13.821 6.43766 13.7519 6.39152 13.6758 6.36006C13.5998 6.3286 13.5183 6.31244 13.436 6.3125H0.626465C0.544178 6.31244 0.462687 6.3286 0.386651 6.36006C0.310616 6.39152 0.24153 6.43766 0.183344 6.49584C0.125159 6.55403 0.0790163 6.62312 0.0475562 6.69915C0.0160961 6.77519 -6.40206e-05 6.85668 1.90603e-07 6.93896V8.81104C-6.40206e-05 8.89332 0.0160961 8.97481 0.0475562 9.05085C0.0790163 9.12688 0.125159 9.19597 0.183344 9.25416C0.24153 9.31234 0.310616 9.35848 0.386651 9.38994C0.462687 9.4214 0.544178 9.43756 0.626465 9.4375ZM21.0938 0.0625H0.78125C0.57405 0.0625 0.375336 0.14481 0.228823 0.291323C0.0823102 0.437836 1.90603e-07 0.63655 1.90603e-07 0.84375V2.40625C1.90603e-07 2.61345 0.0823102 2.81216 0.228823 2.95868C0.375336 3.10519 0.57405 3.1875 0.78125 3.1875H21.0938C21.301 3.1875 21.4997 3.10519 21.6462 2.95868C21.7927 2.81216 21.875 2.61345 21.875 2.40625V0.84375C21.875 0.63655 21.7927 0.437836 21.6462 0.291323C21.4997 0.14481 21.301 0.0625 21.0938 0.0625ZM21.0938 12.5625H0.78125C0.57405 12.5625 0.375336 12.6448 0.228823 12.7913C0.0823102 12.9378 1.90603e-07 13.1365 1.90603e-07 13.3438V14.9062C1.90603e-07 15.1135 0.0823102 15.3122 0.228823 15.4587C0.375336 15.6052 0.57405 15.6875 0.78125 15.6875H21.0938C21.301 15.6875 21.4997 15.6052 21.6462 15.4587C21.7927 15.3122 21.875 15.1135 21.875 14.9062V13.3438C21.875 13.1365 21.7927 12.9378 21.6462 12.7913C21.4997 12.6448 21.301 12.5625 21.0938 12.5625Z" fill="#D22424"/>
</svg>
